<svg width="115" height="24" viewBox="0 0 115 24" fill="none" xmlns="http://www.w3.org/2000/svg">
  <path
    d="M0.642578 23.1921V12.5201H4.53058C5.41591 12.5201 6.13058 12.6854 6.67458 13.0161C7.22925 13.3361 7.63458 13.7574 7.89058 14.2801C8.14658 14.8027 8.27458 15.3627 8.27458 15.9601C8.27458 16.7174 8.10391 17.3574 7.76258 17.8801C7.42125 18.3921 6.97325 18.7814 6.41858 19.0481C5.87458 19.3041 5.28258 19.4321 4.64258 19.4321H2.99458V23.1921H0.642578ZM2.99458 17.4801H4.40258C4.83991 17.4801 5.19191 17.3414 5.45858 17.0641C5.72525 16.7867 5.85858 16.4347 5.85858 16.0081C5.85858 15.5601 5.72525 15.1974 5.45858 14.9201C5.19191 14.6321 4.83458 14.4881 4.38658 14.4881H2.99458V17.4801Z"
    fill="#1E3465"
  />
  <path d="M9.09258 23.1921V12.5201H11.5086V21.0481H16.6126V23.1921H9.09258Z" fill="#1E3465" />
  <path
    d="M16.5365 23.1921L20.5205 12.5201H23.1925L27.0965 23.1921H24.4565L23.6405 20.7441H19.8805L19.0645 23.1921H16.5365ZM20.4405 18.8721H23.0645L21.7685 14.8401L20.4405 18.8721Z"
    fill="#1E3465"
  />
  <path
    d="M27.4457 23.1921V12.5201H29.7497L34.3737 19.4481V12.5201H36.7577V23.1921H34.5657L29.8297 16.1361V23.1921H27.4457Z"
    fill="#1E3465"
  />
  <path
    d="M38.0363 23.1921V12.5201H45.3323V14.6321H40.4523V16.7121H44.2443V18.7601H40.4523V21.0641H45.6843V23.1921H38.0363Z"
    fill="#1E3465"
  />
  <path
    d="M45.7938 21.8961L47.3618 20.4081C47.6498 20.7494 47.9432 20.9947 48.2418 21.1441C48.5405 21.2827 48.8552 21.3521 49.1858 21.3521C49.6232 21.3521 49.9752 21.2187 50.2418 20.9521C50.5085 20.6854 50.6418 20.2961 50.6418 19.7841V12.5201H53.0578V19.9441C53.0578 20.7547 52.8818 21.4214 52.5298 21.9441C52.1885 22.4667 51.7352 22.8561 51.1698 23.1121C50.6152 23.3574 50.0125 23.4801 49.3618 23.4801C47.8152 23.4801 46.6258 22.9521 45.7938 21.8961Z"
    fill="#1E3465"
  />
  <path
    d="M52.8521 23.1921L56.8361 12.5201H59.5081L63.4121 23.1921H60.7721L59.9561 20.7441H56.1961L55.3801 23.1921H52.8521ZM56.7561 18.8721H59.3801L58.0841 14.8401L56.7561 18.8721Z"
    fill="#1E3465"
  />
  <path
    d="M63.5853 23.1921L64.0813 12.5201H66.3693L69.1533 17.5281L71.8733 12.5201H74.1773L74.6733 23.1921H72.2573L71.9533 16.2161L69.7453 20.3761H68.4973L66.1613 16.2641L65.8893 23.1921H63.5853Z"
    fill="#1E3465"
  />
  <path
    d="M75.7738 23.1921V12.5201H83.0698V14.6321H78.1898V16.7121H81.9818V18.7601H78.1898V21.0641H83.4218V23.1921H75.7738Z"
    fill="#1E3465"
  />
  <path
    d="M84.2551 23.1921V12.5201H86.5591L91.1831 19.4481V12.5201H93.5671V23.1921H91.3751L86.6391 16.1361V23.1921H84.2551Z"
    fill="#1E3465"
  />
  <path
    d="M97.5977 23.1921V14.6481H94.1417V12.5201H103.47V14.6481H100.03V23.1921H97.5977Z"
    fill="#1E3465"
  />
  <path
    d="M108.494 23.4641C107.705 23.4641 106.974 23.3254 106.302 23.0481C105.63 22.7601 105.038 22.3601 104.526 21.8481C104.025 21.3361 103.636 20.7387 103.358 20.0561C103.081 19.3734 102.942 18.6374 102.942 17.8481C102.942 17.0481 103.081 16.3121 103.358 15.6401C103.636 14.9574 104.025 14.3601 104.526 13.8481C105.028 13.3361 105.614 12.9414 106.286 12.6641C106.969 12.3761 107.705 12.2321 108.494 12.2321C109.284 12.2321 110.014 12.3761 110.686 12.6641C111.358 12.9414 111.945 13.3361 112.446 13.8481C112.958 14.3601 113.353 14.9574 113.63 15.6401C113.908 16.3121 114.046 17.0481 114.046 17.8481C114.046 18.6374 113.908 19.3734 113.63 20.0561C113.353 20.7387 112.958 21.3361 112.446 21.8481C111.945 22.3601 111.358 22.7601 110.686 23.0481C110.014 23.3254 109.284 23.4641 108.494 23.4641ZM108.494 21.1921C109.124 21.1921 109.662 21.0374 110.11 20.7281C110.569 20.4187 110.916 20.0081 111.15 19.4961C111.396 18.9841 111.518 18.4241 111.518 17.8161C111.518 17.2081 111.396 16.6534 111.15 16.1521C110.916 15.6401 110.569 15.2347 110.11 14.9361C109.662 14.6267 109.124 14.4721 108.494 14.4721C107.865 14.4721 107.321 14.6267 106.862 14.9361C106.414 15.2347 106.068 15.6401 105.822 16.1521C105.577 16.6534 105.454 17.2081 105.454 17.8161C105.454 18.4241 105.577 18.9841 105.822 19.4961C106.068 20.0081 106.414 20.4187 106.862 20.7281C107.321 21.0374 107.865 21.1921 108.494 21.1921Z"
    fill="#1E3465"
  />
  <path
    d="M34.5449 9.5199V2.5199H37.1978C37.9206 2.5199 38.5628 2.64583 39.1242 2.89771C39.6927 3.14259 40.1383 3.52739 40.4612 4.05213C40.784 4.56987 40.9454 5.23804 40.9454 6.05663C40.9454 6.82624 40.7805 7.46992 40.4506 7.98766C40.1278 8.49841 39.6822 8.88322 39.1137 9.14209C38.5522 9.39396 37.9101 9.5199 37.1872 9.5199H34.5449ZM36.1345 8.1136H37.103C37.8048 8.1136 38.3452 7.92819 38.7242 7.55738C39.1032 7.18656 39.2926 6.68282 39.2926 6.04613C39.2926 5.40246 39.1172 4.88821 38.7663 4.50341C38.4154 4.1116 37.861 3.9157 37.103 3.9157H36.1345V8.1136Z"
    fill="#1E3465"
  />
  <path
    d="M41.513 9.5199V2.5199H46.3133V3.90521H43.1026V5.26952H45.5975V6.61285H43.1026V8.1241H46.5449V9.5199H41.513Z"
    fill="#1E3465"
  />
  <path
    d="M0.544922 9.5199V0.519897H3.77378C4.4508 0.519897 5.01498 0.650332 5.46632 0.911202C5.91767 1.16308 6.25618 1.50491 6.48185 1.93669C6.70752 2.35948 6.82036 2.82724 6.82036 3.33999C6.82036 3.9157 6.6945 4.42395 6.44279 4.86473C6.19976 5.3055 5.85257 5.65633 5.40123 5.9172L7.32812 9.5199H5.16687L3.55245 6.21405H2.4588V9.5199H0.544922ZM2.4588 4.58137H3.66962C4.03417 4.58137 4.3206 4.46892 4.52891 4.24404C4.73723 4.01915 4.84138 3.73579 4.84138 3.39396C4.84138 3.02514 4.73289 2.73279 4.51589 2.5169C4.30758 2.30101 4.02549 2.19306 3.66962 2.19306H2.4588V4.58137Z"
    fill="#1E3465"
  />
  <path
    d="M7.80232 9.5199V0.519897H13.7392V2.30101H9.76828V4.05513H12.8539V5.78227H9.76828V7.72529H14.0257V9.5199H7.80232Z"
    fill="#1E3465"
  />
  <path
    d="M14.7037 9.5199V0.519897H17.9847C18.8787 0.519897 19.6729 0.681817 20.3672 1.00565C21.0703 1.3205 21.6215 1.81525 22.0207 2.48991C22.42 3.15558 22.6196 4.01465 22.6196 5.06712C22.6196 6.05663 22.4156 6.88421 22.0077 7.54988C21.6084 8.20655 21.0573 8.70131 20.3542 9.03414C19.6598 9.35798 18.8656 9.5199 17.9716 9.5199H14.7037ZM16.6697 7.7118H17.8675C18.7354 7.7118 19.4038 7.47342 19.8725 6.99666C20.3412 6.5199 20.5755 5.87222 20.5755 5.05363C20.5755 4.22604 20.3586 3.56488 19.9246 3.07012C19.4906 2.56637 18.8049 2.3145 17.8675 2.3145H16.6697V7.7118Z"
    fill="#1E3465"
  />
  <path
    d="M23.3216 9.5199V0.519897H29.2585V2.30101H25.2875V4.05513H28.3732V5.78227H25.2875V7.72529H29.5449V9.5199H23.3216Z"
    fill="#1E3465"
  />
</svg>
